PathFileType	4	(X/Y/Z)	C:/Users/beibeiliu/ov580/test_trc/User2\sequence.22_training_dense_left.trc
DataRate	CameraRate	NumFrames	NumMarkers	Units	OrigDataRate	OrigDataStartFrame	OrigNumFrames
120	120	16	19	mm	120	183	364
Frame#	Time	ThumbCMC			ThumbMCP			ThumbIP			ThumbTip			IndexMCP			IndexPIP			IndexTip			MiddleMCP			MiddlePIP			MiddleTip			RingMCP			RingPIP			RingTip			PinkyMCP			PinkyPIP			PinkyTip			BackHand1			BackHand2			BackHand3	
		X0	Y0	Z0	X1	Y1	Z1	X2	Y2	Z2	X3	Y3	Z3	X4	Y4	Z4	X5	Y5	Z5	X6	Y6	Z6	X7	Y7	Z7	X8	Y8	Z8	X9	Y9	Z9	X10	Y10	Z10	X11	Y11	Z11	X12	Y12	Z12	X13	Y13	Z13	X14	Y14	Z14	X15	Y15	Z15	X16	Y16	Z16	X17	Y17	Z17	X18	Y18	Z18	
182	1.51667	-152.157	17.1888	96.3999	-144.792	34.2669	65.1859	-144.717	49.642	32.9479	-143.208	55.8529	11.8243	-194.162	48.8915	28.5721	-182.818	39.1384	-0.607597	-154.715	16.4037	15.805	-207.841	35.3026	18.0492	-185.339	16.483	-6.53532	-166.822	-1.17091	20.0569	-218.357	18.0729	16.7893	-200.66	5.52386	-4.87344	-177.732	-11.8366	20.2896	-233.216	-1.87873	40.4046	-245.398	7.44399	19.7021	-252.217	21.8855	-4.99565	-218.043	-0.38147	80.8584	-211.079	-10.5333	112.822	-193.064	21.0627	100.195	
183	1.525	-150.592	9.23937	94.3945	-138.694	24.4494	64.866	-136.553	40.5051	34.7003	-139.54	46.7927	10.5539	-188.882	47.8622	27.9186	-174.046	36.1352	-1.7113	-154.31	12.2377	12.0601	-206.073	36.3212	21.7944	-186.512	17.2703	-7.07871	-168.289	-4.22155	21.1381	-219.182	21.1513	20.2683	-204.701	6.38185	-5.28965	-182.368	-10.8994	15.9484	-234.103	3.15198	42.7121	-241.343	20.5866	20.4833	-249.908	34.8138	4.162	-214.436	4.37845	84.256	-214.374	-9.87267	112.512	-188.515	18.1288	102.318	
184	1.53333	-147.957	4.8338	91.3043	-135.981	15.0036	63.7594	-133.683	29.4716	33.6372	-130.838	36.5166	12.4033	-182.829	44.8549	28.9517	-174.866	34.9364	-0.483085	-158.957	4.10299	10.0701	-202.502	36.2089	17.009	-186.65	20.3361	-8.15918	-169.182	-7.62634	16.4327	-219.061	22.6705	17.5049	-204.466	8.9474	-4.87043	-184.728	-15.9369	16.9701	-233.574	8.87675	41.8621	-239.377	25.6365	22.0213	-249.277	38.1732	4.42159	-215.862	5.93826	82.7714	-210.829	-9.4554	111.826	-185.257	17.8956	99.3077	
185	1.54167	-146.157	-3.15769	90.398	-135.887	7.32861	61.3165	-130.959	22.5873	30.2409	-131.235	28.2033	7.20867	-178.73	41.2168	24.58	-173.87	28.541	-2.60031	-159.678	-2.4589	8.27222	-196.55	36.2035	17.9235	-188.501	14.291	-8.40528	-172.689	-12.9675	15.7624	-215.446	20.2644	21.5442	-204.57	9.15572	-6.01585	-186.25	-17.7702	14.2399	-228.484	6.09815	43.4724	-239.601	24.2695	20.0465	-243.925	38.6344	5.05324	-213.615	5.97339	82.3637	-209.192	-6.6313	109.298	-181.275	15.4904	97.744	
186	1.55	-143.176	-7.08341	90.319	-134.285	-0.471512	59.1527	-126.499	10.9223	27.5429	-127.468	14.7246	5.16131	-176.095	33.2349	25.7934	-171.768	17.7003	-6.28639	-159.899	-9.85527	4.9665	-198.223	27.6663	19.2295	-186.545	6.27229	-10.3999	-173.574	-20.6842	14.9046	-213.258	17.8884	16.6044	-206.402	-0.624607	-7.2173	-189.68	-26.8851	15.2192	-233.446	4.75505	40.1194	-235.702	19.4807	21.1217	-240.772	38.103	2.36772	-216.513	0.589082	82.3719	-210.914	-6.43986	110.747	-178.28	11.2967	99.0647	
187	1.55833	-147.649	-12.3251	89.0373	-136.85	-7.59103	59.1434	-128.639	2.4105	24.4198	-128.043	6.79395	0.725023	-177.769	26.966	18.9825	-173.362	14.5601	-9.07246	-159.092	-20.045	5.49472	-195.166	23.049	12.434	-190.648	-2.06237	-12.8716	-176.024	-27.7667	12.5522	-213.199	11.897	15.0545	-205.381	-6.37789	-7.91911	-190.732	-32.354	10.4093	-233.865	-0.66715	39.416	-239.883	12.6901	18.6133	-244.087	27.7068	-0.65697	-211.418	0.94295	77.1108	-212.153	-9.84969	108.815	-183.036	9.95067	93.486	
188	1.56667	-145.966	-11.9885	87.3403	-134.484	-9.20874	55.3984	-129.918	-3.1737	21.1809	-131.81	-2.9155	-3.86599	-177.961	20.1641	15.8631	-174.119	4.50298	-12.3465	-161.98	-28.3034	4.43284	-200.424	12.3823	12.9304	-190.444	-11.2787	-14.3318	-173.235	-35.9336	16.9688	-218.085	1.36365	13.7437	-209.488	-19.7505	-9.06632	-190.415	-41.3119	14.6564	-232.497	-5.54821	36.812	-241.079	2.57358	17.5942	-247.533	14.7669	-2.71214	-217.77	-1.7874	75.9258	-210.662	-9.60106	111.667	-182.953	9.99691	89.5111	
189	1.575	-146.29	-12.919	84.4997	-139.089	-14.4093	54.0716	-128.864	-12.3004	20.1089	-128.181	-12.7693	-6.82941	-177.186	12.2734	13.5013	-174.826	-8.44444	-15.2751	-160.401	-36.2902	2.53483	-199.845	3.08825	8.1154	-193.613	-25.2268	-14.9777	-177.285	-45.9879	18.5857	-216.086	-7.25873	10.3936	-209.975	-34.5297	-8.75698	-189.593	-51.7947	17.6205	-234.391	-13.8524	36.2013	-238.377	-7.15321	14.5314	-246.682	5.29976	-7.52879	-213.597	-4.84959	78.2488	-211.124	-8.42429	110.637	-179.999	6.6306	87.3613	
190	1.58333	-143.515	-14.4562	82.5872	-135.74	-18.8649	50.0635	-129.829	-19.6971	16.5098	-126.707	-22.6331	-6.31009	-179.153	1.57954	11.0522	-180.086	-20.0713	-13.6605	-161.133	-46.2151	7.43194	-200.278	-7.57546	4.48304	-189.522	-38.8214	-13.8512	-177.595	-54.9618	20.547	-220.773	-19.7367	13.2209	-209.131	-41.891	-7.59073	-192.351	-61.9249	20.0123	-231.778	-23.9374	39.2812	-239.092	-15.3686	12.4904	-247.154	-3.35947	-9.96913	-216.948	-10.9144	71.7604	-212.237	-9.87271	104.564	-178.606	5.08048	86.9633	
191	1.59167	-146.643	-17.2249	81.6118	-134.282	-23.5403	54.8786	-128.643	-26.9393	21.7841	-128.623	-31.6059	-4.37854	-178.328	-6.65818	7.55841	-175.582	-31.2699	-14.7667	-162.147	-53.6925	10.0872	-198.661	-15.7912	3.58008	-192.268	-47.5453	-12.3274	-174.513	-60.8649	25.0821	-214.506	-24.7935	8.55973	-208.194	-53.0736	-5.01366	-191.179	-67.4824	23.3237	-228.885	-27.7768	36.4244	-238.462	-22.4152	13.2687	-243.644	-13.5092	-12.9915	-216.085	-12.1558	71.779	-211.52	-9.6858	102.855	-182.262	1.3286	85.2468	
192	1.6	-140.553	-18.0309	84.2259	-130.37	-24.2775	53.5859	-127.723	-29.9298	20.7476	-121.502	-36.6662	-5.34045	-174.147	-11.4916	4.17621	-173.347	-36.7517	-12.352	-153.724	-57.1598	14.2516	-194.794	-20.9242	4.94099	-187.918	-54.0526	-9.49919	-172.055	-66.2795	25.9753	-213.714	-32.0049	9.1277	-203.426	-58.9983	-4.87391	-183.247	-69.006	25.7108	-230.578	-32.972	36.5461	-236.92	-28.1269	12.1899	-242.833	-20.0966	-11.8597	-212.293	-15.041	73.2659	-206.008	-9.99637	105.746	-178.39	0.68817	83.1648	
193	1.60833	-138.974	-17.2722	88.0339	-129.931	-27.115	57.7978	-124.292	-32.3457	21.8132	-116.063	-38.7109	-0.10552	-168.417	-16.2481	3.27935	-162.385	-42.7852	-10.9119	-151.857	-62.2526	19.2537	-187.824	-26.9673	0.120351	-180.519	-58.4888	-8.77627	-167.688	-68.3396	29.3805	-208.966	-36.8198	7.0514	-195.937	-62.8827	-3.71928	-181.054	-74.4743	24.8191	-221.734	-35.5196	35.5224	-230.882	-32.6169	8.86779	-235.754	-25.464	-18.3122	-211.539	-17.2507	67.8906	-210.933	-9.91201	102.94	-175.581	0.936999	81.1032	
194	1.61667	-140.587	-17.8215	86.6147	-125.425	-24.8349	59.4273	-118.877	-32.8585	29.1316	-116.03	-39.0858	2.84562	-163	-19.6683	6.09311	-153.7	-48.7402	-7.22748	-142.418	-64.0603	19.1234	-180.335	-28.4533	2.05986	-169.706	-63.255	-5.79147	-161.421	-70.9936	31.0419	-201.744	-38.3289	9.99127	-190.313	-65.2244	-3.66124	-172.198	-75.0172	30.9009	-218.371	-38.6677	33.5233	-221.256	-36.6774	3.26866	-224.143	-31.9766	-20.9056	-208.518	-18.0655	69.442	-207.008	-12.4375	101.646	-176.404	0.25943	83.4004	
195	1.625	-138.165	-15.5039	92.1872	-123.229	-22.8202	65.0851	-113.073	-28.1278	30.1748	-105.227	-37.1759	9.85405	-155.947	-19.0177	9.1768	-145.961	-50.9014	-4.67034	-134.972	-63.8807	25.1786	-174.836	-31.6309	1.53162	-163.806	-63.8535	-6.13475	-149.989	-69.4706	35.4975	-195.813	-43.7711	9.85581	-181.376	-69.9651	-1.89229	-165.175	-78.5217	30.3703	-211.801	-42.1384	29.6402	-212.968	-41.6007	5.49559	-212.66	-39.5217	-23.7188	-205.131	-18.784	66.4541	-205.568	-12.5198	96.5424	-175.742	0.832539	77.9389	
196	1.63333	-140.01	-12.7414	92.2076	-120.946	-18.683	68.6542	-106.248	-24.7727	36.2818	-97.4124	-31.2487	9.39015	-149.138	-20.0181	9.21212	-138.345	-47.9071	-2.65967	-127.768	-62.9916	30.415	-168.593	-33.4129	4.80229	-151.18	-67.5685	-0.551323	-137.95	-68.1252	38.8346	-186.024	-47.928	7.84122	-163.936	-71.7496	1.40195	-152.302	-76.634	34.4651	-204.231	-47.9075	29.6392	-205.863	-49.0727	2.31863	-205.92	-50.3296	-24.1851	-203.827	-24.2216	65.3024	-208.466	-15.1684	96.5537	-173.55	1.61041	81.3934	
197	1.64167	-137.742	-4.58805	91.7906	-119.472	-12.8947	69.795	-106.16	-19.8533	35.6441	-91.4977	-24.769	15.3149	-144.285	-21.4562	7.70884	-128.031	-49.9721	1.91518	-116.935	-57.8822	32.4043	-163.558	-38.0437	4.81661	-138.577	-63.4792	-0.342841	-128.985	-65.5898	42.117	-177.178	-51.7631	8.92304	-154.655	-73.1177	3.20917	-144.352	-78.0221	37.4877	-197.644	-53.865	29.1304	-197.319	-58.6099	1.97674	-196.494	-59.1269	-21.7787	-199.03	-27.563	63.0602	-206.404	-20.0302	97.4837	-176.767	-1.08118	76.4726	
